<?xml version="1.0" standalone="no"?>
<!DOCTYPE svg PUBLIC "-//W3C//DTD SVG 20010904//EN"
 "http://www.w3.org/TR/2001/REC-SVG-20010904/DTD/svg10.dtd">
<svg version="1.0" xmlns="http://www.w3.org/2000/svg"
 width="320.000000pt" height="320.000000pt" viewBox="0 0 320.000000 320.000000"
 preserveAspectRatio="xMidYMid meet">

<g transform="translate(0.000000,320.000000) scale(0.100000,-0.100000)"
fill="#000000" stroke="none">
<path d="M0 1600 l0 -1600 1600 0 1600 0 0 1600 0 1600 -1600 0 -1600 0 0
-1600z m2564 880 c107 -51 154 -179 109 -292 -35 -88 -111 -138 -208 -138
-177 0 -285 168 -211 326 53 114 193 161 310 104z m-1780 9 c24 -6 61 -26 82
-45 21 -19 61 -54 88 -77 28 -23 77 -67 111 -97 33 -30 92 -82 130 -115 39
-33 92 -81 120 -106 56 -50 106 -96 209 -188 38 -34 72 -58 75 -54 7 10 86 81
170 153 35 30 69 60 75 65 59 54 134 115 142 115 5 0 14 8 20 18 6 9 26 26 44
36 31 18 33 18 27 1 -6 -14 -3 -16 14 -12 16 4 23 -1 34 -26 30 -72 114 -165
173 -193 20 -9 44 -25 55 -35 19 -18 19 -18 -2 -12 -12 3 -21 1 -21 -6 0 -6 5
-11 11 -11 8 0 7 -5 -1 -15 -11 -13 -15 -13 -22 -3 -5 8 -6 2 -2 -14 3 -16 2
-28 -2 -28 -10 0 -39 -26 -220 -196 -237 -223 -370 -338 -409 -355 -53 -24
-138 -24 -191 0 -23 11 -96 68 -161 128 -66 59 -157 142 -203 183 -46 41 -104
94 -129 117 l-46 41 -5 -441 c-5 -433 -5 -443 -27 -484 -90 -168 -331 -161
-412 12 -22 46 -22 47 -19 763 3 716 3 717 25 763 33 70 120 128 191 129 18 0
52 -5 76 -11z m1321 -268 c3 -5 1 -12 -5 -16 -5 -3 -10 1 -10 9 0 18 6 21 15
7z m485 -599 c25 -17 56 -49 70 -69 l25 -36 3 -311 c4 -355 1 -368 -73 -434
-92 -81 -214 -83 -306 -4 -76 65 -79 83 -79 422 l0 298 28 53 c21 42 40 62 82
87 51 31 60 33 130 30 66 -3 80 -7 120 -36z"/>
</g>
</svg>
